<?xml version="1.0" encoding="UTF-8"?>
<svg xmlns="http://www.w3.org/2000/svg" xmlns:xlink="http://www.w3.org/1999/xlink" width="167pt" height="51pt" viewBox="0 0 167 51" version="1.1">
<g id="surface2">
<path style=" stroke:none;fill-rule:nonzero;fill:rgb(32.54902%,12.156863%,34.901961%);fill-opacity:1;" d="M 81.859375 7.347656 C 81.613281 7.304688 81.207031 7.28125 80.847656 7.28125 C 80.492188 7.28125 80.085938 7.304688 79.839844 7.347656 C 79.582031 7.394531 79.527344 7.503906 79.527344 7.683594 L 79.527344 22.460938 C 79.527344 22.636719 79.578125 22.75 79.839844 22.796875 C 80.089844 22.835938 80.492188 22.863281 80.847656 22.863281 C 81.207031 22.863281 81.613281 22.835938 81.859375 22.796875 C 82.117188 22.75 82.171875 22.636719 82.171875 22.460938 L 82.171875 7.683594 C 82.171875 7.503906 82.117188 7.390625 81.859375 7.347656 "/>
<path style=" stroke:none;fill-rule:nonzero;fill:rgb(32.54902%,12.156863%,34.901961%);fill-opacity:1;" d="M 8.933594 16.167969 C 8.503906 16.167969 8.195312 16.167969 7.554688 16.003906 L 7.554688 9.429688 C 8.070312 9.339844 8.546875 9.316406 8.933594 9.316406 C 10.957031 9.316406 12.144531 10.664062 12.144531 12.660156 C 12.144531 14.722656 11.0625 16.167969 8.933594 16.167969 M 8.789062 7.28125 C 6.945312 7.28125 5.722656 7.488281 5.230469 7.574219 C 4.976562 7.621094 4.910156 7.75 4.910156 7.929688 L 4.910156 22.460938 C 4.910156 22.636719 4.964844 22.75 5.222656 22.796875 C 5.46875 22.835938 5.875 22.863281 6.234375 22.863281 C 6.59375 22.863281 6.996094 22.835938 7.242188 22.796875 C 7.503906 22.75 7.554688 22.636719 7.554688 22.460938 L 7.554688 18.136719 C 7.914062 18.183594 8.316406 18.207031 8.804688 18.207031 C 12.035156 18.207031 14.8125 16.648438 14.8125 12.5625 C 14.8125 9.066406 12.191406 7.28125 8.789062 7.28125 "/>
<path style=" stroke:none;fill-rule:nonzero;fill:rgb(32.54902%,12.156863%,34.901961%);fill-opacity:1;" d="M 54.632812 11.335938 C 54.386719 11.292969 54.054688 11.269531 53.691406 11.269531 C 53.335938 11.269531 53.003906 11.292969 52.753906 11.335938 C 52.496094 11.378906 52.441406 11.496094 52.441406 11.671875 L 52.441406 22.457031 C 52.441406 22.632812 52.496094 22.75 52.753906 22.792969 C 53 22.832031 53.332031 22.859375 53.691406 22.859375 C 54.050781 22.859375 54.386719 22.832031 54.632812 22.792969 C 54.890625 22.746094 54.945312 22.632812 54.945312 22.457031 L 54.945312 11.671875 C 54.945312 11.496094 54.890625 11.382812 54.632812 11.335938 "/>
<path style=" stroke:none;fill-rule:nonzero;fill:rgb(32.54902%,12.156863%,34.901961%);fill-opacity:1;" d="M 53.691406 7.125 C 52.917969 7.125 52.285156 7.757812 52.285156 8.535156 C 52.285156 9.316406 52.917969 9.945312 53.691406 9.945312 C 54.472656 9.945312 55.101562 9.3125 55.101562 8.535156 C 55.101562 7.753906 54.472656 7.125 53.691406 7.125 "/>
<path style=" stroke:none;fill-rule:nonzero;fill:rgb(32.54902%,12.156863%,34.901961%);fill-opacity:1;" d="M 59.113281 16.082031 C 59.257812 14.171875 60.128906 12.917969 61.839844 12.917969 C 63.675781 12.917969 64.488281 14.289062 64.578125 16.082031 Z M 61.859375 11.070312 C 58.375 11.070312 56.589844 13.757812 56.589844 17.050781 C 56.589844 20.609375 58.601562 23.011719 62.128906 23.011719 C 63.941406 23.011719 65.394531 22.300781 66.417969 21.191406 C 66.601562 20.988281 66.539062 20.71875 66.382812 20.542969 C 66.167969 20.273438 65.789062 19.90625 65.53125 19.726562 C 65.359375 19.601562 65.152344 19.621094 64.902344 19.824219 C 64.066406 20.496094 63.25 20.867188 62.167969 20.867188 C 60.171875 20.867188 59.289062 19.433594 59.136719 17.816406 L 66.328125 17.816406 C 66.773438 17.816406 67.023438 17.597656 67.023438 17.101562 C 67.027344 13.785156 65.691406 11.070312 61.859375 11.070312 "/>
<path style=" stroke:none;fill-rule:nonzero;fill:rgb(32.54902%,12.156863%,34.901961%);fill-opacity:1;" d="M 25.304688 16.082031 C 25.449219 14.171875 26.316406 12.917969 28.027344 12.917969 C 29.863281 12.917969 30.679688 14.289062 30.765625 16.082031 Z M 28.050781 11.070312 C 24.566406 11.070312 22.777344 13.757812 22.777344 17.050781 C 22.777344 20.609375 24.789062 23.011719 28.316406 23.011719 C 30.128906 23.011719 31.582031 22.300781 32.605469 21.191406 C 32.792969 20.988281 32.726562 20.71875 32.570312 20.542969 C 32.355469 20.273438 31.980469 19.90625 31.71875 19.726562 C 31.546875 19.601562 31.339844 19.621094 31.089844 19.824219 C 30.257812 20.496094 29.4375 20.867188 28.355469 20.867188 C 26.363281 20.867188 25.476562 19.433594 25.324219 17.816406 L 32.519531 17.816406 C 32.964844 17.816406 33.21875 17.597656 33.21875 17.101562 C 33.21875 13.785156 31.882812 11.070312 28.050781 11.070312 "/>
<path style=" stroke:none;fill-rule:nonzero;fill:rgb(32.54902%,12.156863%,34.901961%);fill-opacity:1;" d="M 22.648438 11.621094 C 22.601562 11.125 22.167969 11.070312 21.847656 11.070312 C 20.558594 11.070312 19.242188 12.132812 18.640625 13.382812 C 18.601562 12.449219 18.316406 11.269531 17.34375 11.269531 C 16.984375 11.269531 16.695312 11.289062 16.425781 11.335938 C 16.234375 11.367188 16.058594 11.429688 16.101562 11.8125 C 16.195312 12.609375 16.214844 13.175781 16.214844 14.074219 L 16.214844 22.457031 C 16.214844 22.632812 16.265625 22.75 16.527344 22.792969 C 16.773438 22.832031 17.082031 22.859375 17.445312 22.859375 C 17.808594 22.859375 18.164062 22.832031 18.410156 22.792969 C 18.664062 22.746094 18.722656 22.632812 18.722656 22.457031 L 18.722656 17.171875 C 18.722656 15.589844 19.1875 14.664062 19.8125 14.121094 C 20.703125 13.34375 21.707031 13.40625 22.226562 13.40625 C 22.421875 13.40625 22.550781 13.371094 22.613281 13.035156 C 22.699219 12.574219 22.683594 12.039062 22.648438 11.621094 "/>
<path style=" stroke:none;fill-rule:nonzero;fill:rgb(32.54902%,12.156863%,34.901961%);fill-opacity:1;" d="M 74.261719 11.070312 C 72.96875 11.070312 71.660156 12.132812 71.054688 13.378906 C 71.015625 12.449219 70.730469 11.269531 69.757812 11.269531 C 69.398438 11.269531 69.109375 11.289062 68.839844 11.335938 C 68.648438 11.367188 68.472656 11.429688 68.515625 11.8125 C 68.609375 12.609375 68.628906 13.171875 68.628906 14.074219 L 68.628906 22.457031 C 68.628906 22.632812 68.679688 22.746094 68.941406 22.792969 C 69.1875 22.832031 69.496094 22.859375 69.855469 22.859375 C 70.214844 22.859375 70.574219 22.832031 70.820312 22.792969 C 71.078125 22.75 71.132812 22.632812 71.132812 22.457031 L 71.132812 17.167969 C 71.132812 15.585938 71.597656 14.660156 72.222656 14.117188 C 73.113281 13.339844 74.117188 13.402344 74.636719 13.402344 C 74.828125 13.402344 74.960938 13.367188 75.023438 13.03125 C 75.109375 12.570312 75.097656 12.035156 75.0625 11.617188 C 75.019531 11.128906 74.582031 11.070312 74.261719 11.070312 "/>
<path style=" stroke:none;fill-rule:nonzero;fill:rgb(32.54902%,12.156863%,34.901961%);fill-opacity:1;" d="M 47.148438 11.070312 C 45.828125 11.070312 44.496094 11.746094 43.585938 13.003906 C 43.121094 11.804688 42.117188 11.070312 40.464844 11.070312 C 39.242188 11.070312 37.964844 11.65625 37.074219 12.742188 C 36.945312 11.988281 36.601562 11.269531 35.84375 11.269531 C 35.484375 11.269531 35.195312 11.289062 34.925781 11.335938 C 34.734375 11.367188 34.558594 11.429688 34.601562 11.8125 C 34.699219 12.609375 34.714844 13.171875 34.714844 14.074219 L 34.714844 22.457031 C 34.714844 22.632812 34.769531 22.746094 35.027344 22.792969 C 35.273438 22.832031 35.582031 22.859375 35.945312 22.859375 C 36.304688 22.859375 36.664062 22.832031 36.910156 22.792969 C 37.164062 22.75 37.222656 22.632812 37.222656 22.457031 L 37.222656 16.417969 C 37.222656 14.40625 38.167969 13.179688 39.507812 13.179688 C 40.777344 13.179688 41.433594 14.101562 41.433594 15.617188 L 41.433594 22.460938 C 41.433594 22.636719 41.484375 22.75 41.746094 22.796875 C 41.992188 22.835938 42.324219 22.863281 42.683594 22.863281 C 43.042969 22.863281 43.375 22.835938 43.625 22.796875 C 43.882812 22.753906 43.9375 22.636719 43.9375 22.460938 L 43.9375 16.417969 C 43.9375 14.40625 44.882812 13.179688 46.222656 13.179688 C 47.492188 13.179688 48.148438 14.101562 48.148438 15.617188 L 48.148438 22.460938 C 48.148438 22.636719 48.203125 22.75 48.460938 22.796875 C 48.707031 22.835938 49.039062 22.863281 49.398438 22.863281 C 49.757812 22.863281 50.089844 22.835938 50.339844 22.796875 C 50.597656 22.753906 50.652344 22.636719 50.652344 22.460938 L 50.652344 15.078125 C 50.640625 12.703125 49.609375 11.070312 47.148438 11.070312 "/>
<path style=" stroke:none;fill-rule:nonzero;fill:rgb(32.54902%,12.156863%,34.901961%);fill-opacity:1;" d="M 89.753906 11.070312 C 88.558594 11.070312 87.394531 11.671875 86.460938 12.730469 C 86.328125 11.976562 85.984375 11.269531 85.230469 11.269531 C 84.871094 11.269531 84.582031 11.289062 84.3125 11.335938 C 84.121094 11.371094 83.945312 11.433594 83.988281 11.8125 C 84.082031 12.613281 84.101562 13.179688 84.101562 14.074219 L 84.101562 22.460938 C 84.101562 22.636719 84.152344 22.75 84.414062 22.796875 C 84.660156 22.835938 84.96875 22.863281 85.332031 22.863281 C 85.691406 22.863281 86.050781 22.835938 86.296875 22.796875 C 86.554688 22.75 86.609375 22.636719 86.609375 22.460938 L 86.609375 16.332031 C 86.609375 14.316406 87.730469 13.179688 88.992188 13.179688 C 90.261719 13.179688 91.042969 14.105469 91.042969 15.617188 L 91.042969 22.460938 C 91.042969 22.636719 91.09375 22.753906 91.355469 22.796875 C 91.601562 22.835938 91.929688 22.863281 92.292969 22.863281 C 92.652344 22.863281 92.980469 22.835938 93.230469 22.796875 C 93.492188 22.75 93.542969 22.636719 93.542969 22.460938 L 93.542969 15.078125 C 93.542969 12.703125 92.214844 11.070312 89.753906 11.070312 "/>
<path style=" stroke:none;fill-rule:nonzero;fill:rgb(32.54902%,12.156863%,34.901961%);fill-opacity:1;" d="M 101.078125 11.070312 C 99.882812 11.070312 98.71875 11.671875 97.785156 12.730469 C 97.652344 11.976562 97.308594 11.269531 96.554688 11.269531 C 96.195312 11.269531 95.90625 11.289062 95.640625 11.335938 C 95.449219 11.371094 95.269531 11.433594 95.316406 11.8125 C 95.410156 12.613281 95.429688 13.179688 95.429688 14.074219 L 95.429688 22.460938 C 95.429688 22.636719 95.480469 22.75 95.742188 22.796875 C 95.988281 22.835938 96.296875 22.863281 96.660156 22.863281 C 97.019531 22.863281 97.375 22.835938 97.621094 22.796875 C 97.882812 22.75 97.9375 22.636719 97.9375 22.460938 L 97.9375 16.332031 C 97.9375 14.316406 99.058594 13.179688 100.324219 13.179688 C 101.59375 13.179688 102.371094 14.105469 102.371094 15.617188 L 102.371094 22.460938 C 102.371094 22.636719 102.425781 22.753906 102.6875 22.796875 C 102.933594 22.835938 103.242188 22.863281 103.601562 22.863281 C 103.964844 22.863281 104.269531 22.835938 104.515625 22.796875 C 104.777344 22.75 104.832031 22.636719 104.832031 22.460938 L 104.832031 15.078125 C 104.828125 12.703125 103.539062 11.070312 101.078125 11.070312 "/>
<path style=" stroke:none;fill-rule:nonzero;fill:rgb(32.54902%,12.156863%,34.901961%);fill-opacity:1;" d="M 36.058594 39.800781 L 36.164062 39.929688 C 37.257812 40.816406 38.421875 41.59375 39.722656 42.152344 C 40.359375 42.421875 41.027344 42.597656 41.703125 42.707031 C 42.183594 42.785156 42.652344 42.707031 43.117188 42.585938 C 43.242188 42.554688 43.355469 42.511719 43.480469 42.488281 C 43.699219 42.441406 43.875 42.523438 44 42.703125 C 44.125 42.878906 44.125 43.121094 43.996094 43.304688 C 43.902344 43.441406 43.78125 43.542969 43.621094 43.601562 C 43.3125 43.707031 43 43.796875 42.671875 43.820312 C 42.082031 43.863281 41.496094 43.824219 40.917969 43.710938 C 39.367188 43.40625 37.980469 42.722656 36.679688 41.855469 C 35.960938 41.375 35.277344 40.847656 34.628906 40.273438 C 34.566406 40.214844 34.496094 40.164062 34.410156 40.089844 C 34.347656 40.210938 34.28125 40.316406 34.230469 40.429688 C 33.851562 41.234375 33.472656 42.042969 33.097656 42.847656 C 33.015625 43.015625 32.945312 43.191406 32.84375 43.351562 C 32.675781 43.617188 32.445312 43.800781 32.105469 43.777344 C 31.824219 43.761719 31.636719 43.589844 31.609375 43.3125 C 31.59375 43.121094 31.609375 42.933594 31.679688 42.753906 C 31.78125 42.5 31.882812 42.242188 31.992188 41.992188 C 32.980469 39.824219 34.03125 37.695312 35.203125 35.617188 C 35.671875 34.789062 36.148438 33.964844 36.636719 33.148438 C 36.847656 32.792969 37.101562 32.46875 37.339844 32.128906 C 37.414062 32.027344 37.496094 31.933594 37.585938 31.847656 C 37.820312 31.636719 38.152344 31.601562 38.425781 31.738281 C 38.617188 31.835938 38.785156 32.0625 38.675781 32.335938 C 38.628906 32.464844 38.5625 32.585938 38.492188 32.703125 C 37.972656 33.5625 37.441406 34.410156 36.945312 35.277344 C 36.386719 36.253906 35.859375 37.253906 35.328125 38.246094 C 35.265625 38.355469 35.21875 38.46875 35.171875 38.570312 C 35.226562 38.675781 35.308594 38.652344 35.375 38.644531 C 35.796875 38.597656 36.222656 38.554688 36.640625 38.488281 C 37.496094 38.355469 38.34375 38.1875 39.160156 37.894531 C 41.03125 37.21875 42.65625 36.175781 43.980469 34.675781 C 44.371094 34.234375 44.699219 33.746094 44.949219 33.207031 C 45.136719 32.804688 45.257812 32.386719 45.292969 31.945312 C 45.359375 31.09375 45.023438 30.429688 44.335938 29.945312 C 43.855469 29.609375 43.316406 29.414062 42.742188 29.316406 C 42.085938 29.203125 41.414062 29.199219 40.753906 29.269531 C 38.636719 29.503906 36.648438 30.148438 34.832031 31.28125 C 34.144531 31.707031 33.53125 32.21875 33.007812 32.835938 C 32.847656 33.027344 32.695312 33.230469 32.566406 33.441406 C 32.292969 33.886719 32.121094 34.367188 32.109375 34.894531 C 32.105469 35.007812 32.105469 35.121094 32.089844 35.230469 C 32.046875 35.492188 31.847656 35.695312 31.601562 35.738281 C 31.363281 35.777344 31.144531 35.664062 31.007812 35.429688 C 30.90625 35.253906 30.875 35.054688 30.859375 34.851562 C 30.800781 34.171875 30.964844 33.535156 31.289062 32.9375 C 31.574219 32.417969 31.953125 31.96875 32.375 31.554688 C 33.070312 30.855469 33.871094 30.300781 34.734375 29.835938 C 36.171875 29.070312 37.695312 28.5625 39.296875 28.265625 C 40.003906 28.132812 40.710938 28.058594 41.421875 28.066406 C 42.292969 28.078125 43.140625 28.203125 43.972656 28.476562 C 44.304688 28.585938 44.625 28.730469 44.925781 28.910156 C 45.96875 29.546875 46.515625 30.476562 46.542969 31.703125 C 46.558594 32.5625 46.335938 33.363281 45.9375 34.121094 C 45.539062 34.871094 45.015625 35.523438 44.410156 36.113281 C 42.613281 37.855469 40.480469 38.980469 38.019531 39.472656 C 37.433594 39.59375 36.835938 39.671875 36.242188 39.769531 C 36.195312 39.769531 36.148438 39.785156 36.058594 39.800781 "/>
<path style=" stroke:none;fill-rule:nonzero;fill:rgb(32.54902%,12.156863%,34.901961%);fill-opacity:1;" d="M 74.3125 37.953125 L 74.503906 37.933594 C 74.730469 37.867188 74.960938 37.808594 75.183594 37.722656 C 76.613281 37.183594 77.777344 36.285156 78.71875 35.089844 C 78.875 34.890625 78.996094 34.667969 79.074219 34.429688 C 79.128906 34.253906 79.175781 34.066406 79.179688 33.882812 C 79.191406 33.414062 78.878906 33.160156 78.425781 33.253906 C 78.082031 33.324219 77.757812 33.464844 77.460938 33.648438 C 77.011719 33.925781 76.613281 34.269531 76.246094 34.648438 C 75.4375 35.484375 74.816406 36.445312 74.410156 37.539062 C 74.363281 37.667969 74.292969 37.785156 74.3125 37.953125 M 85.855469 39.847656 C 85.734375 39.96875 85.648438 40.054688 85.566406 40.140625 C 85.066406 40.6875 84.542969 41.207031 83.941406 41.640625 C 83.558594 41.910156 83.160156 42.140625 82.714844 42.289062 C 82.402344 42.394531 82.082031 42.433594 81.753906 42.402344 C 81.09375 42.339844 80.617188 41.933594 80.433594 41.296875 C 80.359375 41.027344 80.308594 40.765625 80.355469 40.433594 C 80.246094 40.503906 80.171875 40.539062 80.109375 40.59375 C 79.578125 41.03125 79.011719 41.421875 78.40625 41.753906 C 77.683594 42.144531 76.933594 42.441406 76.121094 42.578125 C 75.644531 42.660156 75.171875 42.660156 74.707031 42.519531 C 73.996094 42.300781 73.492188 41.835938 73.167969 41.179688 C 72.941406 40.726562 72.859375 40.230469 72.800781 39.730469 C 72.789062 39.632812 72.777344 39.539062 72.761719 39.421875 C 72.625 39.414062 72.503906 39.398438 72.378906 39.398438 C 71.820312 39.398438 71.285156 39.28125 70.773438 39.0625 C 70.605469 38.992188 70.4375 38.886719 70.296875 38.769531 C 70.117188 38.621094 70.078125 38.390625 70.160156 38.191406 C 70.246094 37.992188 70.441406 37.871094 70.679688 37.890625 C 70.839844 37.90625 70.996094 37.949219 71.15625 37.988281 C 71.65625 38.125 72.160156 38.191406 72.679688 38.175781 L 72.882812 38.160156 C 72.917969 38.039062 72.957031 37.921875 72.984375 37.804688 C 73.320312 36.4375 73.972656 35.238281 74.898438 34.1875 C 75.550781 33.441406 76.324219 32.859375 77.222656 32.441406 C 77.71875 32.214844 78.234375 32.085938 78.78125 32.082031 C 79.601562 32.078125 80.242188 32.6875 80.378906 33.453125 C 80.445312 33.816406 80.417969 34.175781 80.335938 34.53125 C 80.207031 35.105469 79.929688 35.605469 79.566406 36.0625 C 79.238281 36.476562 78.859375 36.84375 78.449219 37.171875 C 77.257812 38.125 75.910156 38.769531 74.4375 39.152344 C 74.316406 39.1875 74.195312 39.21875 74.085938 39.246094 C 73.96875 39.886719 74.222656 40.679688 74.667969 41.082031 C 74.933594 41.320312 75.257812 41.398438 75.605469 41.410156 C 75.890625 41.421875 76.175781 41.363281 76.453125 41.289062 C 77.042969 41.136719 77.582031 40.882812 78.105469 40.582031 C 79.109375 40 80.007812 39.28125 80.832031 38.472656 C 81.117188 38.191406 81.355469 37.867188 81.625 37.570312 C 82.542969 36.574219 83.488281 35.609375 84.738281 35.015625 C 85.214844 34.785156 85.707031 34.609375 86.253906 34.640625 C 86.894531 34.679688 87.414062 35.0625 87.609375 35.652344 C 87.652344 35.785156 87.675781 35.921875 87.6875 36.058594 C 87.710938 36.382812 87.558594 36.609375 87.292969 36.773438 C 87.042969 36.925781 86.789062 36.832031 86.691406 36.550781 C 86.65625 36.457031 86.648438 36.355469 86.625 36.257812 C 86.605469 36.175781 86.582031 36.089844 86.542969 36.007812 C 86.46875 35.847656 86.339844 35.757812 86.15625 35.761719 C 86.019531 35.769531 85.875 35.769531 85.753906 35.816406 C 85.496094 35.910156 85.238281 36.007812 84.996094 36.148438 C 83.757812 36.863281 82.78125 37.855469 82.039062 39.074219 C 81.773438 39.503906 81.609375 39.976562 81.53125 40.476562 C 81.511719 40.625 81.507812 40.777344 81.523438 40.921875 C 81.554688 41.160156 81.691406 41.28125 81.929688 41.277344 C 82.074219 41.273438 82.230469 41.253906 82.367188 41.199219 C 82.601562 41.109375 82.828125 41.003906 83.035156 40.867188 C 83.304688 40.6875 83.566406 40.492188 83.808594 40.273438 C 84.433594 39.710938 85.015625 39.109375 85.53125 38.445312 C 85.769531 38.136719 86.011719 37.832031 86.261719 37.535156 C 86.359375 37.421875 86.480469 37.328125 86.605469 37.246094 C 86.683594 37.195312 86.789062 37.15625 86.886719 37.148438 C 87.222656 37.121094 87.539062 37.253906 87.519531 37.695312 C 87.511719 37.816406 87.480469 37.941406 87.4375 38.058594 C 87.28125 38.523438 87.167969 39 87.101562 39.484375 C 87.039062 39.945312 87.011719 40.410156 87.140625 40.863281 C 87.175781 40.992188 87.234375 41.125 87.308594 41.234375 C 87.40625 41.390625 87.53125 41.429688 87.699219 41.34375 C 87.863281 41.261719 88.03125 41.164062 88.160156 41.035156 C 88.53125 40.679688 88.882812 40.308594 89.246094 39.941406 C 89.351562 39.835938 89.449219 39.71875 89.5625 39.621094 C 89.699219 39.503906 89.859375 39.4375 90.042969 39.445312 C 90.339844 39.460938 90.550781 39.699219 90.523438 40 C 90.511719 40.15625 90.445312 40.292969 90.347656 40.410156 C 89.851562 40.992188 89.34375 41.5625 88.742188 42.039062 C 88.464844 42.257812 88.160156 42.425781 87.804688 42.484375 C 87.261719 42.578125 86.816406 42.410156 86.453125 42.007812 C 86.152344 41.667969 86.007812 41.253906 85.945312 40.8125 C 85.910156 40.566406 85.90625 40.316406 85.882812 40.066406 C 85.882812 40.015625 85.875 39.960938 85.855469 39.847656 "/>
<path style=" stroke:none;fill-rule:nonzero;fill:rgb(32.54902%,12.156863%,34.901961%);fill-opacity:1;" d="M 46.65625 38.34375 C 46.777344 38.328125 46.835938 38.328125 46.894531 38.308594 C 47.335938 38.167969 47.753906 37.976562 48.136719 37.714844 C 48.941406 37.175781 49.589844 36.496094 50.117188 35.691406 C 50.246094 35.496094 50.34375 35.273438 50.433594 35.058594 C 50.492188 34.921875 50.527344 34.761719 50.398438 34.640625 C 50.273438 34.523438 50.117188 34.5625 49.972656 34.605469 L 49.800781 34.679688 C 49.648438 34.765625 49.492188 34.84375 49.351562 34.949219 C 48.703125 35.40625 48.117188 35.925781 47.640625 36.5625 C 47.246094 37.097656 46.921875 37.667969 46.65625 38.34375 M 53.402344 38.582031 L 53.226562 38.796875 C 52.578125 39.648438 51.824219 40.398438 50.96875 41.039062 C 50.042969 41.730469 49.011719 42.207031 47.855469 42.363281 C 47.34375 42.433594 46.832031 42.433594 46.339844 42.234375 C 45.953125 42.082031 45.660156 41.824219 45.445312 41.46875 C 45.179688 41.027344 45.035156 40.5625 45.039062 40.042969 C 45.042969 39.222656 45.257812 38.460938 45.601562 37.726562 C 45.917969 37.039062 46.332031 36.414062 46.824219 35.839844 C 47.273438 35.316406 47.78125 34.851562 48.3125 34.414062 C 48.660156 34.125 49.046875 33.890625 49.464844 33.710938 C 49.765625 33.578125 50.078125 33.5 50.40625 33.464844 C 50.613281 33.4375 50.808594 33.476562 50.996094 33.542969 C 51.3125 33.660156 51.515625 33.886719 51.605469 34.207031 C 51.664062 34.425781 51.675781 34.652344 51.640625 34.878906 C 51.554688 35.40625 51.351562 35.894531 51.054688 36.328125 C 50.828125 36.660156 50.585938 36.984375 50.308594 37.273438 C 49.5625 38.046875 48.703125 38.664062 47.710938 39.085938 C 47.269531 39.273438 46.8125 39.398438 46.347656 39.488281 C 46.042969 40.191406 46.421875 40.984375 47.15625 41.191406 C 47.597656 41.3125 48.027344 41.265625 48.453125 41.140625 C 49.199219 40.929688 49.875 40.578125 50.476562 40.097656 C 51.539062 39.25 52.398438 38.234375 52.964844 36.988281 C 53.304688 36.246094 53.796875 35.617188 54.402344 35.085938 C 54.875 34.667969 55.386719 34.3125 55.941406 34.019531 C 56.355469 33.800781 56.785156 33.640625 57.246094 33.554688 C 57.636719 33.484375 58.019531 33.507812 58.394531 33.644531 C 58.847656 33.808594 59.082031 34.136719 59.105469 34.609375 C 59.125 35.058594 58.980469 35.476562 58.742188 35.851562 C 58.640625 36.011719 58.488281 36.132812 58.308594 36.195312 C 58.21875 36.226562 58.113281 36.246094 58.015625 36.234375 C 57.820312 36.210938 57.707031 36.050781 57.75 35.859375 C 57.769531 35.75 57.8125 35.644531 57.859375 35.542969 C 57.933594 35.375 57.949219 35.203125 57.933594 35.027344 C 57.910156 34.835938 57.804688 34.699219 57.613281 34.660156 C 57.492188 34.632812 57.367188 34.628906 57.242188 34.636719 C 56.992188 34.65625 56.753906 34.738281 56.527344 34.847656 C 55.617188 35.292969 54.882812 35.9375 54.335938 36.792969 C 54.253906 36.921875 54.1875 37.058594 54.136719 37.195312 C 54.03125 37.464844 54.117188 37.632812 54.410156 37.679688 C 54.644531 37.71875 54.886719 37.734375 55.121094 37.738281 C 55.496094 37.738281 55.871094 37.722656 56.246094 37.714844 C 56.796875 37.703125 57.3125 37.835938 57.785156 38.125 C 58.242188 38.402344 58.476562 38.796875 58.453125 39.339844 C 58.4375 39.617188 58.382812 39.890625 58.257812 40.136719 C 57.804688 41.023438 57.136719 41.699219 56.246094 42.144531 C 55.667969 42.429688 55.0625 42.546875 54.425781 42.40625 C 54.097656 42.335938 53.804688 42.195312 53.574219 41.957031 C 53.230469 41.601562 53.125 41.1875 53.265625 40.710938 C 53.328125 40.496094 53.453125 40.332031 53.644531 40.21875 C 53.792969 40.132812 53.945312 40.105469 54.113281 40.140625 C 54.308594 40.179688 54.394531 40.285156 54.390625 40.484375 L 54.363281 40.707031 C 54.355469 40.929688 54.457031 41.09375 54.640625 41.203125 C 54.8125 41.304688 54.992188 41.339844 55.183594 41.328125 C 55.296875 41.320312 55.414062 41.304688 55.515625 41.269531 C 56.128906 41.042969 56.640625 40.667969 56.996094 40.109375 C 57.082031 39.976562 57.144531 39.820312 57.191406 39.664062 C 57.296875 39.285156 57.152344 39.023438 56.785156 38.90625 C 56.542969 38.832031 56.296875 38.789062 56.046875 38.796875 C 55.707031 38.804688 55.371094 38.808594 55.03125 38.828125 C 54.464844 38.839844 53.917969 38.832031 53.402344 38.582031 "/>
<path style=" stroke:none;fill-rule:nonzero;fill:rgb(32.54902%,12.156863%,34.901961%);fill-opacity:1;" d="M 103.375 37.566406 C 103.25 37.5625 103.21875 37.660156 103.179688 37.726562 C 102.449219 38.859375 101.5625 39.859375 100.636719 40.832031 C 100.1875 41.304688 99.691406 41.730469 99.132812 42.074219 C 98.722656 42.328125 98.292969 42.523438 97.8125 42.59375 C 97.453125 42.648438 97.113281 42.589844 96.800781 42.402344 C 96.464844 42.210938 96.265625 41.917969 96.175781 41.550781 C 96.039062 40.996094 96.046875 40.433594 96.125 39.871094 C 96.195312 39.363281 96.324219 38.863281 96.480469 38.375 C 96.761719 37.5 97.117188 36.660156 97.597656 35.878906 C 97.675781 35.753906 97.757812 35.621094 97.851562 35.507812 C 98.042969 35.273438 98.289062 35.128906 98.585938 35.097656 C 98.910156 35.066406 99.105469 35.253906 99.125 35.582031 C 99.132812 35.738281 99.0625 35.867188 98.992188 36.007812 C 98.699219 36.574219 98.398438 37.136719 98.113281 37.707031 C 97.765625 38.410156 97.535156 39.148438 97.386719 39.914062 C 97.335938 40.183594 97.308594 40.457031 97.359375 40.738281 C 97.390625 40.914062 97.441406 41.078125 97.554688 41.21875 C 97.667969 41.355469 97.8125 41.425781 97.988281 41.367188 C 98.152344 41.308594 98.316406 41.238281 98.464844 41.152344 C 98.972656 40.847656 99.414062 40.457031 99.8125 40.023438 C 100.433594 39.351562 101.046875 38.671875 101.601562 37.945312 C 102.054688 37.34375 102.476562 36.71875 102.863281 36.074219 C 103.046875 35.761719 103.253906 35.464844 103.453125 35.160156 L 103.496094 35.097656 C 103.65625 34.875 103.84375 34.683594 104.148438 34.765625 C 104.464844 34.84375 104.671875 35.058594 104.734375 35.382812 C 104.769531 35.566406 104.785156 35.757812 104.773438 35.941406 C 104.726562 36.84375 104.617188 37.738281 104.382812 38.617188 C 103.703125 41.199219 102.679688 43.640625 101.207031 45.878906 C 100.558594 46.859375 99.777344 47.71875 98.800781 48.382812 C 98.160156 48.816406 97.476562 49.140625 96.710938 49.285156 C 95.84375 49.449219 95.019531 49.324219 94.230469 48.921875 C 93.890625 48.75 93.613281 48.496094 93.394531 48.183594 C 93.003906 47.625 92.800781 47 92.757812 46.320312 C 92.738281 46.058594 92.78125 45.796875 92.855469 45.542969 C 92.917969 45.320312 93.0625 45.148438 93.238281 45 C 93.335938 44.914062 93.453125 44.871094 93.582031 44.875 C 93.804688 44.882812 93.964844 45.019531 93.984375 45.242188 C 93.996094 45.339844 93.980469 45.441406 93.980469 45.542969 C 93.980469 45.777344 93.976562 46.015625 93.976562 46.253906 C 93.980469 46.910156 94.511719 47.78125 95.433594 48.085938 C 95.785156 48.203125 96.152344 48.15625 96.511719 48.082031 C 96.882812 48.003906 97.234375 47.871094 97.570312 47.699219 C 98.375 47.292969 99.054688 46.730469 99.625 46.03125 C 100.132812 45.40625 100.566406 44.730469 100.941406 44.023438 C 101.257812 43.425781 101.578125 42.832031 101.878906 42.226562 C 102.488281 41 102.953125 39.71875 103.230469 38.375 C 103.261719 38.230469 103.304688 38.085938 103.339844 37.941406 C 103.378906 37.8125 103.398438 37.691406 103.375 37.566406 "/>
<path style=" stroke:none;fill-rule:nonzero;fill:rgb(32.54902%,12.156863%,34.901961%);fill-opacity:1;" d="M 61.074219 36.535156 C 60.90625 36.554688 60.796875 36.574219 60.6875 36.582031 C 60.484375 36.597656 60.285156 36.621094 60.089844 36.613281 C 59.847656 36.609375 59.6875 36.464844 59.632812 36.242188 C 59.578125 36.027344 59.683594 35.773438 59.894531 35.671875 C 60.003906 35.617188 60.128906 35.582031 60.25 35.554688 C 60.554688 35.5 60.867188 35.457031 61.175781 35.40625 C 61.296875 35.386719 61.417969 35.359375 61.535156 35.335938 C 61.6875 35.003906 61.832031 34.6875 61.980469 34.371094 C 62.414062 33.441406 62.917969 32.546875 63.476562 31.683594 C 63.613281 31.472656 63.761719 31.273438 63.914062 31.074219 C 64.054688 30.890625 64.238281 30.761719 64.453125 30.679688 C 64.679688 30.601562 64.902344 30.617188 65.085938 30.792969 C 65.183594 30.886719 65.226562 31.003906 65.171875 31.132812 C 65.113281 31.273438 65.046875 31.40625 64.964844 31.53125 C 64.304688 32.554688 63.71875 33.617188 63.207031 34.71875 C 63.15625 34.828125 63.0625 34.929688 63.121094 35.089844 L 63.296875 35.089844 C 64.136719 34.960938 64.980469 34.828125 65.824219 34.699219 C 66.042969 34.664062 66.269531 34.644531 66.492188 34.621094 C 66.703125 34.59375 66.890625 34.648438 67.050781 34.792969 C 67.269531 34.996094 67.277344 35.273438 67.078125 35.492188 C 66.964844 35.617188 66.824219 35.6875 66.65625 35.714844 C 66.136719 35.789062 65.613281 35.863281 65.09375 35.9375 C 64.289062 36.0625 63.488281 36.1875 62.6875 36.316406 L 62.535156 36.355469 L 62.449219 36.515625 C 62.09375 37.480469 61.761719 38.453125 61.644531 39.476562 C 61.601562 39.875 61.605469 40.277344 61.597656 40.675781 C 61.59375 40.867188 61.640625 41.050781 61.730469 41.21875 C 61.847656 41.445312 62.019531 41.527344 62.257812 41.445312 C 62.410156 41.390625 62.554688 41.308594 62.683594 41.214844 C 63.003906 40.988281 63.257812 40.699219 63.480469 40.375 C 63.574219 40.238281 63.679688 40.117188 63.839844 40.058594 C 64.078125 39.96875 64.335938 40.085938 64.414062 40.328125 L 64.417969 40.546875 C 64.363281 40.722656 64.3125 40.910156 64.210938 41.066406 C 63.773438 41.765625 63.183594 42.289062 62.414062 42.601562 C 62.109375 42.726562 61.785156 42.785156 61.464844 42.683594 C 61.070312 42.558594 60.796875 42.296875 60.636719 41.917969 C 60.5 41.589844 60.425781 41.25 60.398438 40.898438 C 60.335938 40.03125 60.410156 39.171875 60.609375 38.328125 C 60.726562 37.816406 60.878906 37.3125 61.011719 36.804688 C 61.023438 36.730469 61.042969 36.660156 61.074219 36.535156 "/>
<path style=" stroke:none;fill-rule:nonzero;fill:rgb(32.54902%,12.156863%,34.901961%);fill-opacity:1;" d="M 92.402344 42.632812 C 91.8125 42.628906 91.390625 42.414062 91.074219 42.003906 C 90.898438 41.769531 90.832031 41.511719 90.902344 41.222656 C 90.960938 40.964844 91.207031 40.753906 91.457031 40.738281 C 91.699219 40.722656 91.902344 40.847656 91.992188 41.070312 L 92.023438 41.179688 C 92.101562 41.480469 92.171875 41.546875 92.453125 41.5 C 93.050781 41.40625 93.535156 41.105469 93.871094 40.601562 C 94.074219 40.296875 94.007812 40.058594 93.691406 39.886719 C 93.542969 39.800781 93.371094 39.734375 93.203125 39.699219 C 92.714844 39.589844 92.222656 39.503906 91.734375 39.398438 C 91.492188 39.351562 91.242188 39.304688 91.007812 39.222656 C 90.785156 39.152344 90.558594 39.054688 90.363281 38.929688 C 89.792969 38.566406 89.578125 37.984375 89.742188 37.332031 C 89.84375 36.9375 90.023438 36.578125 90.265625 36.253906 C 91.035156 35.210938 92.03125 34.453125 93.246094 33.996094 C 93.578125 33.875 93.921875 33.8125 94.273438 33.78125 C 94.550781 33.753906 94.820312 33.796875 95.085938 33.886719 C 95.828125 34.132812 96.085938 34.820312 96 35.386719 C 95.90625 35.964844 95.625 36.445312 95.183594 36.824219 C 95.074219 36.921875 94.925781 36.976562 94.789062 37.03125 C 94.65625 37.082031 94.519531 37.058594 94.386719 37.003906 C 94.210938 36.929688 94.101562 36.800781 94.074219 36.609375 C 94.050781 36.421875 94.121094 36.246094 94.289062 36.164062 C 94.585938 36.027344 94.699219 35.769531 94.785156 35.492188 C 94.929688 35.027344 94.789062 34.851562 94.304688 34.902344 C 94.070312 34.925781 93.828125 34.976562 93.613281 35.054688 C 92.664062 35.414062 91.890625 36.011719 91.273438 36.816406 C 91.105469 37.03125 90.96875 37.273438 90.898438 37.546875 C 90.828125 37.816406 90.871094 37.949219 91.132812 38.058594 C 91.335938 38.148438 91.558594 38.210938 91.777344 38.257812 C 92.289062 38.367188 92.808594 38.449219 93.324219 38.5625 C 93.566406 38.617188 93.804688 38.699219 94.035156 38.789062 C 94.332031 38.902344 94.59375 39.078125 94.796875 39.324219 C 95.160156 39.75 95.246094 40.234375 95.074219 40.765625 C 94.984375 41.042969 94.832031 41.285156 94.636719 41.503906 C 94.128906 42.074219 93.5 42.433594 92.753906 42.59375 C 92.613281 42.621094 92.472656 42.625 92.402344 42.632812 "/>
<path style=" stroke:none;fill-rule:nonzero;fill:rgb(32.54902%,12.156863%,34.901961%);fill-opacity:1;" d="M 138.445312 48.710938 C 151.476562 48.710938 162.042969 38.140625 162.042969 25.101562 C 162.042969 12.0625 151.476562 1.496094 138.445312 1.496094 C 125.410156 1.496094 114.847656 12.0625 114.847656 25.101562 C 114.847656 38.140625 125.410156 48.710938 138.445312 48.710938 "/>
<path style=" stroke:none;fill-rule:nonzero;fill:rgb(100%,100%,100%);fill-opacity:1;" d="M 141.621094 7.273438 L 141.585938 7.269531 C 140.667969 7.136719 140.203125 7.769531 140.203125 8.414062 C 140.203125 8.746094 140.34375 9.046875 140.566406 9.257812 L 140.589844 9.285156 C 143.4375 11.957031 145.195312 15.636719 145.195312 19.699219 C 145.195312 20.351562 145.148438 20.988281 145.0625 21.617188 L 145.054688 21.667969 C 144.976562 22.132812 144.878906 22.519531 144.789062 22.816406 C 144.660156 23.257812 144.546875 23.496094 144.546875 23.496094 C 144.324219 23.964844 144.011719 24.425781 143.691406 24.777344 C 143.453125 25.039062 143.277344 25.21875 142.902344 25.535156 C 142.792969 25.625 142.691406 25.707031 142.582031 25.792969 C 142.035156 26.21875 141.488281 26.550781 140.988281 26.816406 C 140.703125 26.964844 140.429688 27.101562 140.179688 27.214844 C 139.828125 27.390625 139.539062 27.519531 139.34375 27.632812 C 139.089844 27.765625 138.878906 28.007812 138.839844 28.304688 C 138.800781 28.628906 138.996094 28.933594 139.226562 29.148438 C 139.386719 29.320312 139.914062 29.621094 140.085938 29.992188 C 140.183594 30.195312 140.191406 30.453125 139.945312 30.6875 L 139.84375 30.773438 C 139.460938 31.066406 139.191406 31.289062 139.019531 31.410156 C 138.777344 31.570312 138.707031 31.679688 138.679688 31.84375 C 138.660156 32.226562 138.917969 32.40625 139.183594 32.625 C 139.53125 32.914062 140.203125 33.414062 141.09375 33.761719 C 141.628906 33.972656 142.253906 34.136719 142.925781 34.160156 C 143.058594 34.160156 143.1875 34.15625 143.320312 34.15625 C 143.816406 34.148438 143.363281 34.425781 143.363281 34.425781 C 140.558594 35.867188 138.175781 33.78125 137.523438 33.179688 C 137.40625 33.074219 137.332031 33.015625 137.332031 33.015625 C 136.839844 32.691406 136.214844 33.023438 136.210938 33.023438 L 136.164062 33.046875 C 134.082031 33.976562 131.75 34.496094 129.289062 34.496094 C 127.917969 34.496094 126.523438 34.3125 125.253906 34.011719 C 125.171875 33.992188 125.089844 33.984375 125.007812 33.984375 C 124.378906 33.984375 123.863281 34.496094 123.863281 35.125 C 123.863281 35.390625 123.953125 35.628906 124.105469 35.824219 L 124.140625 35.867188 C 127.429688 39.96875 132.503906 42.601562 138.195312 42.601562 C 148.113281 42.601562 156.148438 34.621094 156.148438 24.777344 C 156.148438 16.089844 149.894531 8.859375 141.621094 7.273438 M 148.328125 27.972656 C 148.328125 27.972656 147.449219 28.375 146.511719 27.828125 C 146.515625 27.828125 146.515625 27.832031 146.519531 27.832031 L 146.511719 27.824219 C 146.511719 27.824219 146.511719 27.828125 146.515625 27.828125 C 145.585938 27.28125 145.503906 26.316406 145.503906 26.316406 C 145.503906 26.316406 145.386719 24.988281 145.777344 25.859375 C 146.171875 26.726562 146.929688 27.117188 146.929688 27.117188 L 146.933594 27.121094 C 146.933594 27.121094 147.644531 27.589844 148.59375 27.507812 C 149.539062 27.425781 148.328125 27.972656 148.328125 27.972656 "/>
<path style=" stroke:none;fill-rule:nonzero;fill:rgb(98.431373%,98.431373%,98.431373%);fill-opacity:1;" d="M 141.585938 7.265625 C 141.660156 7.277344 141.515625 7.253906 141.585938 7.265625 "/>
<path style=" stroke:none;fill-rule:nonzero;fill:rgb(98.431373%,72.941176%,0%);fill-opacity:1;" d="M 129.15625 27.257812 C 129.453125 27.875 129.789062 28.644531 130.09375 29.53125 C 130.09375 29.53125 129.023438 28.84375 127.992188 28.082031 C 127.222656 29.417969 126.753906 30.371094 126.753906 30.371094 C 126.742188 29.46875 126.78125 28.675781 126.859375 27.921875 C 126.183594 28.121094 125.542969 28.238281 124.867188 28.503906 C 124.867188 28.503906 125.511719 27.746094 126.5 26.96875 C 126.5 26.96875 125.886719 26.46875 125.335938 25.914062 C 125.335938 25.914062 126.03125 25.910156 127.132812 25.996094 C 127.332031 24.964844 127.523438 24.351562 127.523438 24.351562 C 127.925781 24.960938 128.289062 25.667969 128.289062 25.667969 C 129.109375 25.058594 130.207031 24.589844 130.207031 24.589844 C 129.828125 25.128906 129.53125 25.617188 129.179688 26.214844 C 129.976562 26.320312 130.792969 26.460938 131.703125 26.660156 C 131.703125 26.667969 130.757812 26.996094 129.15625 27.257812 "/>
<path style=" stroke:none;fill-rule:nonzero;fill:rgb(98.431373%,72.941176%,0%);fill-opacity:1;" d="M 128.292969 17.582031 C 130.472656 17.566406 131.804688 17.324219 131.804688 17.324219 C 130.648438 16.84375 129.601562 16.46875 128.574219 16.144531 C 129.1875 15.390625 129.695312 14.78125 130.328125 14.121094 C 130.328125 14.121094 128.757812 14.527344 127.523438 15.1875 C 127.523438 15.1875 127.21875 14.132812 126.84375 13.191406 C 126.84375 13.191406 126.429688 14.003906 125.925781 15.386719 C 124.476562 15.027344 123.554688 14.878906 123.554688 14.878906 C 124.15625 15.761719 124.84375 16.597656 124.84375 16.597656 C 123.347656 17.457031 122.3125 18.359375 122.3125 18.359375 C 123.265625 18.144531 124.148438 18.121094 125.089844 17.996094 C 124.808594 19.019531 124.558594 20.109375 124.355469 21.359375 C 124.355469 21.359375 125.210938 20.148438 126.554688 18.464844 C 127.730469 19.75 128.980469 20.933594 128.980469 20.933594 C 128.785156 19.644531 128.535156 18.5 128.292969 17.582031 "/>
<path style=" stroke:none;fill-rule:nonzero;fill:rgb(98.431373%,72.941176%,0%);fill-opacity:1;" d="M 137.261719 13.351562 C 138.449219 13.308594 139.160156 13.15625 139.160156 13.15625 C 138.527344 12.910156 137.953125 12.726562 137.394531 12.566406 C 137.710938 12.152344 137.976562 11.8125 138.3125 11.445312 C 138.3125 11.445312 137.464844 11.691406 136.808594 12.066406 C 136.808594 12.066406 136.625 11.496094 136.410156 10.996094 C 136.410156 10.996094 136.199219 11.4375 135.945312 12.203125 C 135.152344 12.027344 134.660156 11.960938 134.660156 11.960938 C 134.992188 12.433594 135.382812 12.871094 135.382812 12.871094 C 134.585938 13.363281 134.035156 13.867188 134.035156 13.867188 C 134.554688 13.734375 135.023438 13.703125 135.535156 13.625 C 135.398438 14.183594 135.277344 14.777344 135.1875 15.457031 C 135.1875 15.457031 135.636719 14.78125 136.335938 13.855469 C 136.992188 14.535156 137.683594 15.15625 137.683594 15.15625 C 137.5625 14.460938 137.410156 13.847656 137.261719 13.351562 "/>
</g>
</svg>
